# xmcd
#
# Track frame offsets: 
#        150
#        12733
#        24133
#        36283
#        51752
#        67645
#        83545
#        99984
#        119338
#        133139
#        146426
#        157963
#        176649
#
# Disc length: 2523 seconds
#
# Revision: 5
# Processed by: cddbd v1.5.2PL0 Copyright (c) Steve Scherf et al.
# Submitted via: ExactAudioCopy v0.99pb4
#
DISCID=9d09d90d
DTITLE=Waylon Jennings - The Ramblin' Man
DYEAR=1974
DGENRE=Country
TTITLE0=I'm A Ramblin' Man
TTITLE1=Rainy Day Woman
TTITLE2=Cloudy Days
TTITLE3=Midnight Rider
TTITLE4=Oklahoma Sunshine
TTITLE5=The Hunger
TTITLE6=I Can't Keep My Hands Off Of You
TTITLE7=Memories Of You And I
TTITLE8=It'll Be Her
TTITLE9=Amanda
TTITLE10=Got A Lot Going For Me
TTITLE11=The Last Letter
TTITLE12=The One I Sing My Love Song To
EXTD=
EXTT0=
EXTT1=
EXTT2=
EXTT3=
EXTT4=
EXTT5=
EXTT6=
EXTT7=
EXTT8=
EXTT9=
EXTT10=
EXTT11=
EXTT12=
PLAYORDER=
